<?xml version='1.0' encoding='UTF-8'?>
<svg x="0px" y="0px" viewBox="0 0 32 32" version="1.1" xmlns="http://www.w3.org/2000/svg" xmlns:xlink="http://www.w3.org/1999/xlink" xml:space="preserve" id="Layer_1">
  <g id="Invoice">
    <path d="M19.6,15.8c-0.3-0.4-0.6-0.7-1-1c-0.4-0.2-0.8-0.4-1.2-0.5C17,14.1,16.7,14,16.5,14c-0.2,0-0.3-0.1-0.5-0.1   v-2.7c0.1,0,0.2,0.1,0.2,0.1c0.2,0.1,0.4,0.3,0.5,0.5c0.1,0.2,0.2,0.6,0.2,1.2h2.5c0-0.9-0.1-1.5-0.4-2c-0.3-0.5-0.6-0.8-1.1-1.1   c-0.4-0.3-1-0.5-1.5-0.7c-0.2,0-0.3-0.1-0.5-0.1V7h-2v2.1c-0.2,0-0.4,0.1-0.7,0.1c-0.5,0.1-1,0.4-1.4,0.6c-0.4,0.3-0.8,0.7-1,1.1   c-0.3,0.4-0.4,0.9-0.4,1.5c0,0.5,0.1,1,0.3,1.3c0.2,0.4,0.5,0.7,0.8,0.9c0.3,0.2,0.7,0.4,1.1,0.6c0.4,0.2,0.8,0.3,1.3,0.4v3.2   c-0.3-0.1-0.5-0.2-0.7-0.3c-0.2-0.2-0.4-0.4-0.6-0.7c-0.1-0.3-0.2-0.6-0.2-0.9H10c0,0.7,0.1,1.3,0.4,1.8c0.3,0.5,0.7,0.9,1.1,1.3   c0.5,0.3,1,0.6,1.6,0.7c0.3,0.1,0.6,0.1,0.8,0.2V23h2v-2c0.4,0,0.8-0.1,1.2-0.2c0.6-0.2,1.1-0.4,1.5-0.8c0.4-0.3,0.7-0.7,0.9-1.2   c0.2-0.4,0.3-0.9,0.3-1.5C20,16.7,19.9,16.2,19.6,15.8z M13.7,13.2c-0.3-0.1-0.4-0.2-0.5-0.4c-0.1-0.1-0.1-0.3-0.1-0.5   c0-0.2,0.1-0.4,0.2-0.6c0.1-0.2,0.3-0.3,0.4-0.4c0.1-0.1,0.2-0.1,0.4-0.2v2.2C13.9,13.3,13.8,13.2,13.7,13.2z M17.2,18.3   c-0.2,0.2-0.3,0.3-0.6,0.4c-0.2,0.1-0.4,0.2-0.7,0.2v-2.7c0.1,0,0.2,0.1,0.4,0.1c0.3,0.1,0.6,0.3,0.8,0.5c0.2,0.2,0.3,0.4,0.3,0.8   C17.5,17.9,17.4,18.2,17.2,18.3z" fill="#039C23" class="Green" />
    <path d="M27,0H3C2.5,0,2,0.5,2,1v28c0,0.5,0.5,1,1,1h24c0.5,0,1-0.5,1-1V1C28,0.5,27.5,0,27,0z M26,28H4V2h22V28z" fill="#727272" class="Black" />
  </g>
</svg>